<svg width="34" height="33" viewBox="0 0 34 33" fill="none" xmlns="http://www.w3.org/2000/svg">
<path fill-rule="evenodd" clip-rule="evenodd" d="M16.75 3C9.29415 3 3.25 9.04415 3.25 16.5C3.25 23.9558 9.29415 30 16.75 30C24.2058 30 30.25 23.9558 30.25 16.5C30.25 9.04415 24.2058 3 16.75 3ZM0.25 16.5C0.25 7.3873 7.6373 0 16.75 0C25.8627 0 33.25 7.3873 33.25 16.5C33.25 25.6127 25.8627 33 16.75 33C7.6373 33 0.25 25.6127 0.25 16.5Z" fill="#4F4F4F"/>
<path fill-rule="evenodd" clip-rule="evenodd" d="M10.75 11C11.5784 11 12.25 11.6396 12.25 12.4286V12.5714C12.25 13.3604 11.5784 14 10.75 14C9.92157 14 9.25 13.3604 9.25 12.5714V12.4286C9.25 11.6396 9.92157 11 10.75 11Z" fill="#4F4F4F"/>
<path fill-rule="evenodd" clip-rule="evenodd" d="M22.75 11C23.5784 11 24.25 11.6396 24.25 12.4286V12.5714C24.25 13.3604 23.5784 14 22.75 14C21.9216 14 21.25 13.3604 21.25 12.5714V12.4286C21.25 11.6396 21.9216 11 22.75 11Z" fill="#4F4F4F"/>
<path fill-rule="evenodd" clip-rule="evenodd" d="M9.68934 18.4393C9.97064 18.158 10.3522 18 10.75 18H22.75C23.1478 18 23.5294 18.158 23.8107 18.4393C24.092 18.7206 24.25 19.1022 24.25 19.5C24.25 21.4891 23.4598 23.3968 22.0533 24.8033C20.6468 26.2098 18.7391 27 16.75 27C14.7609 27 12.8532 26.2098 11.4467 24.8033C10.0402 23.3968 9.25 21.4891 9.25 19.5C9.25 19.1022 9.40804 18.7206 9.68934 18.4393ZM12.5074 21C12.729 21.6269 13.0889 22.2029 13.568 22.682C14.4119 23.5259 15.5565 24 16.75 24C17.9435 24 19.0881 23.5259 19.932 22.682C20.4111 22.2029 20.771 21.6269 20.9926 21H12.5074Z" fill="#4F4F4F"/>
</svg>
