<svg width="36" height="34" viewBox="0 0 36 34" fill="none" xmlns="http://www.w3.org/2000/svg">
<path d="M34.6798 16.4552L19.5861 1.36924L18.5744 0.35752C18.3439 0.128523 18.0321 0 17.7072 0C17.3823 0 17.0705 0.128523 16.84 0.35752L0.734537 16.4552C0.49833 16.6905 0.311652 16.9707 0.185522 17.2793C0.0593914 17.5879 -0.00363527 17.9187 0.000161913 18.2521C0.0157869 19.6271 1.16032 20.7247 2.53532 20.7247H4.19547V33.4474H31.2189V20.7247H32.9142C33.5822 20.7247 34.2111 20.463 34.6838 19.9903C34.9165 19.7583 35.1009 19.4825 35.2263 19.1788C35.3517 18.875 35.4155 18.5494 35.4142 18.2208C35.4142 17.5567 35.1525 16.9278 34.6798 16.4552ZM19.8947 30.6349H15.5197V22.6661H19.8947V30.6349ZM28.4064 17.9122V30.6349H22.3947V21.7286C22.3947 20.8653 21.6955 20.1661 20.8322 20.1661H14.5822C13.7189 20.1661 13.0197 20.8653 13.0197 21.7286V30.6349H7.00797V17.9122H3.25797L17.7111 3.4708L18.6134 4.37315L32.1603 17.9122H28.4064Z" fill="#4F4F4F"/>
</svg>
