<svg width="33" height="30" viewBox="0 0 33 30" fill="none" xmlns="http://www.w3.org/2000/svg">
<path fill-rule="evenodd" clip-rule="evenodd" d="M31.25 23.75H1.25V21.25H31.25V23.75Z" fill="#4F4F4F"/>
<path fill-rule="evenodd" clip-rule="evenodd" d="M0 15C0 13.2051 1.45507 11.75 3.25 11.75H29.25C31.0449 11.75 32.5 13.2051 32.5 15V28C32.5 28.6904 31.9404 29.25 31.25 29.25C30.5596 29.25 30 28.6904 30 28V15C30 14.5858 29.6642 14.25 29.25 14.25H3.25C2.83579 14.25 2.5 14.5858 2.5 15V28C2.5 28.6904 1.94036 29.25 1.25 29.25C0.559644 29.25 0 28.6904 0 28V15Z" fill="#4F4F4F"/>
<path fill-rule="evenodd" clip-rule="evenodd" d="M2 4C2 2.20507 3.45507 0.75 5.25 0.75H14.25C16.0449 0.75 17.5 2.20507 17.5 4V13C17.5 13.6904 16.9404 14.25 16.25 14.25H3.25C2.55964 14.25 2 13.6904 2 13V4ZM5.25 3.25C4.83579 3.25 4.5 3.58579 4.5 4V11.75H15V4C15 3.58579 14.6642 3.25 14.25 3.25H5.25Z" fill="#4F4F4F"/>
<path fill-rule="evenodd" clip-rule="evenodd" d="M15 4C15 2.20507 16.4551 0.75 18.25 0.75H27.25C29.0449 0.75 30.5 2.20507 30.5 4V13C30.5 13.6904 29.9404 14.25 29.25 14.25H16.25C15.5596 14.25 15 13.6904 15 13V4ZM18.25 3.25C17.8358 3.25 17.5 3.58579 17.5 4V11.75H28V4C28 3.58579 27.6642 3.25 27.25 3.25H18.25Z" fill="#4F4F4F"/>
</svg>
