<svg width="36" height="35" viewBox="0 0 36 35" fill="none" xmlns="http://www.w3.org/2000/svg">
<path d="M13.13 0.20273C13.2677 0.11319 13.4217 0.0516659 13.5832 0.0216753C13.7447 -0.00831534 13.9105 -0.00618469 14.0712 0.0279454C14.2318 0.0620755 14.3842 0.127536 14.5196 0.220584C14.6549 0.313633 14.7706 0.432445 14.86 0.57023L22.61 12.4852H33.5C33.9641 12.4852 34.4093 12.6696 34.7374 12.9978C35.0656 13.326 35.25 13.7711 35.25 14.2352V17.4902C35.2518 20.4911 34.482 23.4421 33.0145 26.0597C31.5469 28.6773 29.4311 30.8736 26.87 32.4377H32.1875C32.519 32.4377 32.837 32.5694 33.0714 32.8038C33.3058 33.0383 33.4375 33.3562 33.4375 33.6877C33.4375 34.0192 33.3058 34.3372 33.0714 34.5716C32.837 34.806 32.519 34.9377 32.1875 34.9377H19.2325C18.2459 35.0204 17.2541 35.0204 16.2675 34.9377H3.3125C2.98098 34.9377 2.66304 34.806 2.42862 34.5716C2.1942 34.3372 2.0625 34.0192 2.0625 33.6877C2.0625 33.3562 2.1942 33.0383 2.42862 32.8038C2.66304 32.5694 2.98098 32.4377 3.3125 32.4377H8.63C6.06859 30.8734 3.95247 28.6767 2.48495 26.0586C1.01742 23.4405 0.247796 20.4891 0.250005 17.4877V14.2377C0.250005 13.7736 0.434379 13.3285 0.762568 13.0003C1.09076 12.6721 1.53588 12.4877 2 12.4877H12.625L5.76501 1.93273C5.58399 1.65492 5.52076 1.31657 5.58921 0.992136C5.65766 0.667698 5.85219 0.38374 6.13 0.20273C6.40782 0.0217195 6.74616 -0.0415157 7.0706 0.0269351C7.39504 0.0953859 7.67899 0.289916 7.86001 0.56773L15.61 12.4827H19.625L12.7625 1.93273C12.6725 1.79509 12.6105 1.64102 12.5801 1.47937C12.5497 1.31773 12.5515 1.15167 12.5854 0.990718C12.6193 0.82977 12.6846 0.677096 12.7777 0.541448C12.8707 0.4058 12.9896 0.289845 13.1275 0.20023L13.13 0.20273ZM2.75 14.9877V17.4877C2.75 18.3402 2.82 19.1777 2.9575 19.9902H32.5425C32.68 19.1777 32.75 18.3402 32.75 17.4902V14.9877H2.75ZM31.8975 22.4927H3.6C4.55666 25.1977 6.26831 27.572 8.53234 29.3345C10.7964 31.097 13.518 32.1739 16.375 32.4377H19.12C21.977 32.1739 24.6986 31.097 26.9627 29.3345C29.2267 27.572 30.9383 25.1977 31.895 22.4927H31.8975Z" fill="#4F4F4F"/>
</svg>
