<svg width="34" height="31" viewBox="0 0 34 31" fill="none" xmlns="http://www.w3.org/2000/svg">
<path d="M33.1797 6.19534C32.6561 4.98298 31.9011 3.88436 30.957 2.96097C30.0122 2.03482 28.8983 1.29882 27.6758 0.792996C26.4081 0.266407 25.0485 -0.00313198 23.6758 2.74565e-05C21.75 2.74565e-05 19.8711 0.527371 18.2383 1.52346C17.8477 1.76175 17.4766 2.02347 17.125 2.30862C16.7734 2.02347 16.4023 1.76175 16.0117 1.52346C14.3789 0.527371 12.5 2.74565e-05 10.5742 2.74565e-05C9.1875 2.74565e-05 7.84375 0.265653 6.57422 0.792996C5.34766 1.30081 4.24219 2.03128 3.29297 2.96097C2.34764 3.88332 1.59249 4.9822 1.07031 6.19534C0.527344 7.45706 0.25 8.7969 0.25 10.1758C0.25 11.4766 0.515625 12.8321 1.04297 14.211C1.48438 15.3633 2.11719 16.5586 2.92578 17.7657C4.20703 19.6758 5.96875 21.668 8.15625 23.6875C11.7812 27.0352 15.3711 29.3477 15.5234 29.4414L16.4492 30.0352C16.8594 30.2969 17.3867 30.2969 17.7969 30.0352L18.7227 29.4414C18.875 29.3438 22.4609 27.0352 26.0898 23.6875C28.2773 21.668 30.0391 19.6758 31.3203 17.7657C32.1289 16.5586 32.7656 15.3633 33.2031 14.211C33.7305 12.8321 33.9961 11.4766 33.9961 10.1758C34 8.7969 33.7227 7.45706 33.1797 6.19534ZM17.125 26.9453C17.125 26.9453 3.21875 18.0352 3.21875 10.1758C3.21875 6.19534 6.51172 2.96878 10.5742 2.96878C13.4297 2.96878 15.9062 4.56253 17.125 6.89065C18.3438 4.56253 20.8203 2.96878 23.6758 2.96878C27.7383 2.96878 31.0312 6.19534 31.0312 10.1758C31.0312 18.0352 17.125 26.9453 17.125 26.9453Z" fill="#4F4F4F"/>
</svg>
