<svg width="35" height="34" viewBox="0 0 35 34" fill="none" xmlns="http://www.w3.org/2000/svg">
<path d="M17.7766 5.91354e-05C11.8195 -0.0155659 6.57734 3.06647 3.58125 7.72272C3.44844 7.92975 3.59688 8.20318 3.84297 8.20318H6.58906C6.77656 8.20318 6.95234 8.12115 7.06953 7.97662C7.34297 7.64459 7.63594 7.32428 7.94453 7.01959C9.21797 5.75006 10.6984 4.75006 12.3469 4.05475C14.05 3.336 15.8625 2.96881 17.7336 2.96881C19.6047 2.96881 21.4172 3.33209 23.1203 4.05475C24.7687 4.75006 26.2492 5.75006 27.5227 7.01959C28.7961 8.28912 29.7922 9.76959 30.4914 11.4141C31.2141 13.1172 31.5773 14.9258 31.5773 16.7969C31.5773 18.668 31.2102 20.4766 30.4914 22.1797C29.7961 23.8243 28.7961 25.3047 27.5227 26.5743C26.2492 27.8438 24.7687 28.8438 23.1203 29.5391C21.4158 30.259 19.5839 30.6284 17.7336 30.6251C15.8625 30.6251 14.05 30.2579 12.3469 29.5391C10.7017 28.8445 9.20667 27.8377 7.94453 26.5743C7.63594 26.2657 7.34688 25.9454 7.06953 25.6172C6.95234 25.4727 6.77266 25.3907 6.58906 25.3907H3.84297C3.59688 25.3907 3.44453 25.6641 3.58125 25.8712C6.57344 30.5157 11.7922 33.5938 17.7336 33.5938C26.9602 33.5938 34.4523 26.168 34.5461 16.9688C34.6398 7.62115 27.1359 0.0234966 17.7766 5.91354e-05ZM12.8281 21.1719V18.2032H0.5625C0.390625 18.2032 0.25 18.0626 0.25 17.8907V15.7032C0.25 15.5313 0.390625 15.3907 0.5625 15.3907H12.8281V12.4219C12.8281 12.1602 13.1328 12.0118 13.3359 12.1758L18.8789 16.5508C18.9163 16.5801 18.9465 16.6174 18.9672 16.6601C18.988 16.7027 18.9988 16.7495 18.9988 16.7969C18.9988 16.8444 18.988 16.8912 18.9672 16.9338C18.9465 16.9764 18.9163 17.0138 18.8789 17.043L13.3359 21.418C13.1328 21.5782 12.8281 21.4337 12.8281 21.1719Z" fill="#4F4F4F"/>
</svg>
